<svg xmlns="http://www.w3.org/2000/svg" xmlns:xlink="http://www.w3.org/1999/xlink" xmlns:lucid="lucid" width="480" height="344.76"><g transform="translate(-580.0000000000001 -660)" lucid:page-tab-id="0_0"><path d="M0 0h1870.4v1323.2H0z" fill="#fff"/><path d="M786.15 763.8c0 4.22-37.88 7.63-84.6 7.63-46.74 0-84.63-3.4-84.63-7.62v-60.94c0-4.2 37.9-7.62 84.62-7.62 46.73 0 84.6 3.4 84.6 7.62z" stroke="#000" stroke-width="2" fill="#fff"/><path d="M786.15 702.86c0 4.2-37.88 7.62-84.6 7.62-46.74 0-84.63-3.4-84.63-7.62" stroke="#000" stroke-width="2" fill="none"/><use xlink:href="#a" transform="matrix(1,0,0,1,621.923076923077,715.4761904761904) translate(31.6 30.3375)"/><path d="M600 680h203.08v45.7H600z" stroke="#000" stroke-opacity="0" stroke-width="2" fill="#fff" fill-opacity="0"/><use xlink:href="#b" transform="matrix(1,0,0,1,605.0000000000001,685) translate(66.6 21.15)"/><path d="M904.62 695.24H1040v76.2H904.62z" stroke="#000" stroke-width="2" fill="#fff"/><use xlink:href="#c" transform="matrix(1,0,0,1,909.6153846153846,700.2380952380952) translate(42.525 37.43125)"/><path d="M786.15 870.48c0 4.2-37.88 7.62-84.6 7.62-46.74 0-84.63-3.42-84.63-7.62v-60.96c0-4.2 37.9-7.62 84.62-7.62 46.73 0 84.6 3.42 84.6 7.62z" stroke="#000" stroke-width="2" fill="#fff"/><path d="M786.15 809.52c0 4.2-37.88 7.62-84.6 7.62-46.74 0-84.63-3.4-84.63-7.62" stroke="#000" stroke-width="2" fill="none"/><use xlink:href="#d" transform="matrix(1,0,0,1,621.923076923077,822.1428571428571) translate(39.574999999999996 30.3375)"/><path d="M600 786.67h203.08v45.7H600z" stroke="#000" stroke-opacity="0" stroke-width="2" fill="#fff" fill-opacity="0"/><use xlink:href="#b" transform="matrix(1,0,0,1,605.0000000000001,791.6666666666667) translate(66.6 21.15)"/><path d="M786.15 977.14c0 4.2-37.88 7.62-84.6 7.62-46.74 0-84.63-3.4-84.63-7.62V916.2c0-4.22 37.9-7.63 84.62-7.63 46.73 0 84.6 3.4 84.6 7.62z" stroke="#000" stroke-width="2" fill="#fff"/><path d="M786.15 916.2c0 4.2-37.88 7.6-84.6 7.6-46.74 0-84.63-3.4-84.63-7.6" stroke="#000" stroke-width="2" fill="none"/><use xlink:href="#e" transform="matrix(1,0,0,1,621.923076923077,928.8095238095239) translate(65.175 30.3375)"/><path d="M600 893.33h203.08v45.72H600z" stroke="#000" stroke-opacity="0" stroke-width="2" fill="#fff" fill-opacity="0"/><use xlink:href="#b" transform="matrix(1,0,0,1,605.0000000000001,898.3333333333334) translate(66.6 21.15)"/><path d="M904.62 801.9H1040v76.2H904.62z" stroke="#000" stroke-width="2" fill="#fff"/><use xlink:href="#f" transform="matrix(1,0,0,1,909.6153846153846,806.9047619047619) translate(23.074999999999996 37.43125)"/><path d="M904.62 908.57H1040v76.2H904.62z" stroke="#000" stroke-width="2" fill="#fff"/><use xlink:href="#g" transform="matrix(1,0,0,1,909.6153846153846,913.5714285714287) translate(35.05 37.43125)"/><path d="M788.15 733.33h96.96" stroke="#000" stroke-width="2" fill="none"/><path d="M788.18 734.33h-1.03v-2h1.03z"/><path d="M900.38 733.33l-14.27 4.64v-9.27z" stroke="#000" stroke-width="2"/><path d="M972.3 773.43v8.97" stroke="#000" stroke-width="2" fill="none"/><path d="M973.3 773.45h-2v-1.02h2z"/><path d="M972.3 797.67l-4.63-14.27h9.27z" stroke="#000" stroke-width="2"/><path d="M788.15 946.67h96.96" stroke="#000" stroke-width="2" fill="none"/><path d="M788.18 947.67h-1.03v-2h1.03z"/><path d="M900.38 946.67l-14.27 4.63v-9.27z" stroke="#000" stroke-width="2"/><path d="M788.15 840h96.96" stroke="#000" stroke-width="2" fill="none"/><path d="M788.18 841h-1.03v-2h1.03z"/><path d="M900.38 840l-14.27 4.64v-9.28z" stroke="#000" stroke-width="2"/><path d="M972.3 880.1v8.97" stroke="#000" stroke-width="2" fill="none"/><path d="M973.3 880.12h-2v-1.02h2z"/><path d="M972.3 904.34l-4.63-14.27h9.27z" stroke="#000" stroke-width="2"/><defs><path d="M75-17c87 13 134-18 134-103 0-78-51-106-134-100v203zm171-102C246 5 139 7 10 0v-9l31-5v-208l-31-4v-10h107c82 0 129 35 129 117" id="h"/><path d="M84-170c49 0 66 33 63 87H46c-8 60 38 80 95 63v10C128-2 108 4 88 4 34 4 14-29 14-84c-1-54 22-86 70-86zm33 73c12-57-57-82-69-24-1 7-2 15-2 24h71" id="i"/><path d="M164-154L98 4H85L17-153c-7-3-20 0-17-12h77v8l-26 4L99-38l46-115-26-4v-8h61v8" id="j"/><path d="M65-12l28 4v8H7v-8l28-4v-226l-28-4v-8h58v238" id="k"/><path d="M90-170c52 0 76 32 76 87 0 54-24 87-77 87-51 0-75-34-75-87 0-54 24-87 76-87zM89-10c39 0 46-35 46-73 0-39-7-73-46-73-39 1-44 34-44 73s6 72 44 73" id="l"/><path d="M166-85c3 67-44 102-111 85l1 64 29 4v9H6v-9l21-4v-217c-7-3-22 1-19-12h46l1 9c11-8 26-14 45-14 47 2 64 36 66 85zM56-13c53 14 83-14 78-72 7-53-33-79-78-60v132" id="m"/><path d="M126-118c4-37-42-32-68-25v131l24 4v8H8C5-13 21-9 28-12v-141c-7-3-23 1-20-12h48l1 13c22-15 77-30 92 2 32-22 104-36 104 29v109c8 3 24-2 21 12h-75v-8l25-4v-106c3-39-45-31-72-24 7 37 1 88 3 130l25 4v8h-78v-8l24-4v-106" id="n"/><path d="M125-118c4-37-41-34-68-26v132l23 4v8H8C5-13 21-9 28-12v-141c-7-3-23 1-20-12h47l2 13c31-23 98-29 98 31v109c7 3 23-1 20 12h-72v-8l22-4v-106" id="o"/><path d="M54-38c-1 25 24 26 44 20v12C71 10 25 9 25-35v-115H4c-2-14 14-10 21-15l18-38h11v38h38v15H54v112" id="p"/><g id="a"><use transform="matrix(0.05,0,0,0.05,0,0)" xlink:href="#h"/><use transform="matrix(0.05,0,0,0.05,12.950000000000001,0)" xlink:href="#i"/><use transform="matrix(0.05,0,0,0.05,20.900000000000002,0)" xlink:href="#j"/><use transform="matrix(0.05,0,0,0.05,29.900000000000002,0)" xlink:href="#i"/><use transform="matrix(0.05,0,0,0.05,37.85,0)" xlink:href="#k"/><use transform="matrix(0.05,0,0,0.05,42.85,0)" xlink:href="#l"/><use transform="matrix(0.05,0,0,0.05,51.85,0)" xlink:href="#m"/><use transform="matrix(0.05,0,0,0.05,60.85,0)" xlink:href="#n"/><use transform="matrix(0.05,0,0,0.05,74.85,0)" xlink:href="#i"/><use transform="matrix(0.05,0,0,0.05,82.8,0)" xlink:href="#o"/><use transform="matrix(0.05,0,0,0.05,91.8,0)" xlink:href="#p"/></g><path d="M75-106v92l39 5v9H13v-9l28-5v-208l-31-4v-10h177v57h-11l-6-38c-28-4-63-3-95-3v98h69l5-28h11v73h-11l-5-29H75" id="q"/><path d="M32-163c41-10 102-14 102 39v112c8 3 24-2 21 12h-45l-4-17C83 13 3 13 13-46c-2-50 45-50 92-51 4-36-5-70-42-56-6 2-12 4-16 6-4 7 0 23-15 20v-36zM42-47c0 41 41 33 63 22v-59c-34 1-63-1-63 37" id="r"/><path d="M124-13C89 8 26 15 26-45v-108c-8-3-24 2-21-12h50v118c-3 37 42 32 69 25v-131l-25-4v-8h54v153c8 3 24-2 21 12h-48" id="s"/><path d="M57-145c16-10 35-24 60-25v45c-19 1-8-30-40-17l-20 6v124l29 4v8H7v-8l21-4v-141c-8-3-24 2-21-12h48" id="t"/><path d="M41-130c7 48 86 23 86 84 0 56-69 57-112 41v-40c20 0 9 29 31 31 35 19 77-26 41-50-27-18-72-13-72-59 0-50 58-52 100-41v36c-19 1-8-25-28-25-21-7-50-1-46 23" id="u"/><g id="b"><use transform="matrix(0.05,0,0,0.05,0,0)" xlink:href="#q"/><use transform="matrix(0.05,0,0,0.05,10,0)" xlink:href="#i"/><use transform="matrix(0.05,0,0,0.05,17.95,0)" xlink:href="#r"/><use transform="matrix(0.05,0,0,0.05,25.899999999999995,0)" xlink:href="#p"/><use transform="matrix(0.05,0,0,0.05,30.899999999999995,0)" xlink:href="#s"/><use transform="matrix(0.05,0,0,0.05,39.9,0)" xlink:href="#t"/><use transform="matrix(0.05,0,0,0.05,45.85,0)" xlink:href="#i"/><use transform="matrix(0.05,0,0,0.05,53.800000000000004,0)" xlink:href="#u"/></g><path d="M134-16c44-1 70-21 70-64v-142l-32-4v-10h80v10l-30 4v141c0 57-33 84-91 85-58 0-93-26-93-82v-144l-30-4v-10h94v10l-30 4c7 82-31 209 62 206" id="v"/><path d="M75-131c50 2 93 3 93-48 0-46-48-41-93-41v89zm0 115c55 4 111 6 111-51 0-53-58-48-111-48v99zm148-52C223 24 102-3 10 0v-9l31-5v-208l-31-4v-10c77 6 193-24 194 56 0 33-20 48-48 54 36 5 67 20 67 58" id="w"/><path d="M152 0h-7L59-203v189l32 5v9H10v-9l31-5v-208l-31-4v-10h72l76 180 84-180h68v10l-31 4v208l31 5v9h-96v-9l32-5v-189" id="x"/><g id="c"><use transform="matrix(0.05,0,0,0.05,0,0)" xlink:href="#v"/><use transform="matrix(0.05,0,0,0.05,12.950000000000001,0)" xlink:href="#w"/><use transform="matrix(0.05,0,0,0.05,24.950000000000003,0)" xlink:href="#x"/></g><path d="M10-9l31-5v-208l-31-4v-10h177v57h-11l-6-38c-28-4-63-3-95-3v92h63l6-28h11v73h-11l-6-29H75v96l105-3 10-43h12l-3 62H10v-9" id="y"/><g id="d"><use transform="matrix(0.05,0,0,0.05,0,0)" xlink:href="#y"/><use transform="matrix(0.05,0,0,0.05,10.950000000000001,0)" xlink:href="#o"/><use transform="matrix(0.05,0,0,0.05,19.950000000000003,0)" xlink:href="#t"/><use transform="matrix(0.05,0,0,0.05,25.900000000000002,0)" xlink:href="#l"/><use transform="matrix(0.05,0,0,0.05,34.900000000000006,0)" xlink:href="#k"/><use transform="matrix(0.05,0,0,0.05,39.900000000000006,0)" xlink:href="#k"/><use transform="matrix(0.05,0,0,0.05,44.900000000000006,0)" xlink:href="#n"/><use transform="matrix(0.05,0,0,0.05,58.900000000000006,0)" xlink:href="#i"/><use transform="matrix(0.05,0,0,0.05,66.85000000000001,0)" xlink:href="#o"/><use transform="matrix(0.05,0,0,0.05,75.85000000000001,0)" xlink:href="#p"/></g><path d="M55 0v-9l38-5v-207c-22 1-53 0-70 4l-5 37H7v-56h207v56h-12l-5-37-70-3v206l37 5v9H55" id="z"/><g id="e"><use transform="matrix(0.05,0,0,0.05,0,0)" xlink:href="#z"/><use transform="matrix(0.05,0,0,0.05,9.700000000000001,0)" xlink:href="#i"/><use transform="matrix(0.05,0,0,0.05,17.650000000000002,0)" xlink:href="#u"/><use transform="matrix(0.05,0,0,0.05,24.650000000000002,0)" xlink:href="#p"/></g><path d="M81-9v9H4v-9l26-5 81-224h33l83 224 30 5v9h-99v-9l31-5-23-68H73L49-14zm38-203L78-98h82" id="A"/><path d="M13-81c0-71 46-101 114-85l-1-72-28-4v-8h57v238c8 3 24-2 21 12h-47l-2-12C80 23 13-1 13-81zm77-74c-37 1-44 33-45 74 0 38 9 66 45 66 14 0 27-3 36-7v-130c-10-1-24-3-36-3" id="B"/><path d="M47-200c-23 0-25-39 0-38 13 0 18 7 20 19-1 11-8 19-20 19zM65-12l28 4v8H8v-8l28-4v-141l-24-4v-8h53v153" id="C"/><g id="f"><use transform="matrix(0.05,0,0,0.05,0,0)" xlink:href="#A"/><use transform="matrix(0.05,0,0,0.05,12.950000000000001,0)" xlink:href="#B"/><use transform="matrix(0.05,0,0,0.05,21.950000000000003,0)" xlink:href="#r"/><use transform="matrix(0.05,0,0,0.05,29.900000000000002,0)" xlink:href="#m"/><use transform="matrix(0.05,0,0,0.05,38.900000000000006,0)" xlink:href="#p"/><use transform="matrix(0.05,0,0,0.05,43.900000000000006,0)" xlink:href="#r"/><use transform="matrix(0.05,0,0,0.05,51.85,0)" xlink:href="#p"/><use transform="matrix(0.05,0,0,0.05,56.85,0)" xlink:href="#C"/><use transform="matrix(0.05,0,0,0.05,61.85,0)" xlink:href="#l"/><use transform="matrix(0.05,0,0,0.05,70.85000000000001,0)" xlink:href="#o"/></g><path d="M178-68c0 79-95 82-154 59v-54h12c1 35 22 52 60 52 50 0 69-58 33-82-39-24-105-21-105-85 0-67 86-66 142-53v49h-12l-6-29c-31-27-121-7-89 42 28 43 119 24 119 101" id="D"/><path d="M45-84c0 64 52 80 104 63 1 25-30 25-55 25-56 0-80-32-80-88 0-76 62-98 131-80v46h-10c-5-15-4-31-23-35-47-10-67 21-67 69" id="E"/><path d="M141-152c28 39 5 97-54 97-9 0-20-2-27-3L49-35c29 22 130-14 124 52-4 45-38 57-88 61C21 83-8 26 45-2 33-6 22-15 21-31l28-31c-19-9-28-26-28-51-2-51 53-65 100-52l38-20 7 8zM85 64c35 0 61-11 61-42 0-35-57-17-89-21-9 8-16 19-17 34 0 25 19 29 45 29zM52-113c1 26 7 46 35 44 28-1 34-16 35-44 0-26-6-43-34-43s-36 17-36 43" id="F"/><g id="g"><use transform="matrix(0.05,0,0,0.05,0,0)" xlink:href="#D"/><use transform="matrix(0.05,0,0,0.05,10,0)" xlink:href="#E"/><use transform="matrix(0.05,0,0,0.05,17.95,0)" xlink:href="#l"/><use transform="matrix(0.05,0,0,0.05,26.950000000000003,0)" xlink:href="#t"/><use transform="matrix(0.05,0,0,0.05,32.9,0)" xlink:href="#C"/><use transform="matrix(0.05,0,0,0.05,37.9,0)" xlink:href="#o"/><use transform="matrix(0.05,0,0,0.05,46.9,0)" xlink:href="#F"/></g></defs></g></svg>